<?xml version="1.0" encoding="utf-8"?>
<!-- Generator: Adobe Illustrator 27.5.0, SVG Export Plug-In . SVG Version: 6.00 Build 0)  -->
<svg version="1.1" xmlns="http://www.w3.org/2000/svg" xmlns:xlink="http://www.w3.org/1999/xlink" x="0px" y="0px"
	 viewBox="0 0 500 500" style="enable-background:new 0 0 500 500;" xml:space="preserve">
<g id="BACKGROUND">
	<rect style="fill:#FFFFFF;" width="500" height="500"/>
</g>
<g id="OBJECT">
	<g>
		<path style="fill:#F7EFFB;" d="M47.101,186.627c-19.95,99.541,15.877,225.502,107.16,265.792
			c91.283,40.29,228.463-34.181,267.086-105.49s62.166-233.619-70.137-290.975S69.742,73.661,47.101,186.627z"/>
		<g>
			<polygon style="fill:#6033C6;" points="69.578,270.855 85.876,270.855 149.561,312.771 144.298,358.156 110.042,366.837 			"/>
			<polygon style="fill:#3E1F93;" points="69.578,270.855 126.681,320.061 110.042,366.837 47.101,292.725 			"/>
			<polygon style="fill:#8768DD;" points="126.681,320.061 149.561,312.771 144.298,358.156 110.042,366.837 			"/>
		</g>
		<g>
			<defs>
				<path id="SVGID_1_" d="M47.101,186.627c-19.95,99.541,15.877,225.502,107.16,265.792
					c91.283,40.29,228.463-34.181,267.086-105.49s62.166-233.619-70.137-290.975S69.742,73.661,47.101,186.627z"/>
			</defs>
			<clipPath id="SVGID_00000053530208221880606450000000995902577181767069_">
				<use xlink:href="#SVGID_1_"  style="overflow:visible;"/>
			</clipPath>
			<g style="clip-path:url(#SVGID_00000053530208221880606450000000995902577181767069_);">
				<path style="fill:#4E2BAF;" d="M173.481,257.911c19.902-8.764,27.57-13.203,31.606-23.697
					c4.036-10.493,7.554-20.18,7.611-22.601c0.057-2.422-12.858-21.441-12.858-21.441L179.949,202.4l-6.467,34.236V257.911z"/>
				<path style="fill:#6033C6;" d="M235.069,156.947c-29.759,2.793-58.309,40.168-58.309,40.168v26.283l71.878-55.663
					L235.069,156.947z"/>
				<path style="fill:#6033C6;" d="M292.51,131.832c-1.078,3.248-2.463,6.397-4.118,9.289c-9.694,16.875,0,26.728,0,26.728
					s-31.459-5.049-27.733-33.787c0.098-0.784,0.22-1.581,0.38-2.402c5.846-30.87,21.606-35.221,21.606-35.221
					C295.709,98.069,297.719,116.096,292.51,131.832z"/>
				<path style="opacity:0.24;fill:#2D241B;" d="M288.393,141.121c-9.694,16.875,0,26.728,0,26.728s-18.444-2.954-25.417-17.255
					c-2.083-4.265-3.137-9.547-2.365-16.066c0.012-0.147,0.025-0.306,0.049-0.466c1.348-2.23,2.953-4.571,4.375-7.426
					c4.228-8.468,21.042-23.076,17.819-12.941c-3.223,10.135-1.287,31.422,9.644,18.125l0.012,0.012
					C291.432,135.079,290.047,138.229,288.393,141.121z"/>
				<path style="opacity:0.37;fill:#2D241B;" d="M262.976,150.594c-2.083-4.265-3.137-9.547-2.365-16.066
					c6.691-7.794,19.816-22.598,19.976-19.228C280.807,119.822,276.751,141.378,262.976,150.594z"/>
				<path style="fill:#2D241B;" d="M267.97,87.752c12.703-2.643,23.537,9.327,19.598,21.81c-3.94,12.483-22.53,13.596-22.53,13.596
					L267.97,87.752z"/>
				<path style="fill:#6033C6;" d="M280.574,107.641c-0.208,8.125-2.966,15.785-7.292,20.723
					c-5.245,5.993-12.132,11.005-17.831,14.571c-6.091,3.811-10.834,5.993-10.834,5.993l-35.98-55.319
					c7.034-21.299,28.346-29.669,52.402-18.346C275.501,82.064,280.917,95.398,280.574,107.641z"/>
				<path style="opacity:0.24;fill:#2D241B;" d="M280.574,107.641c-0.208,8.125-2.966,15.785-7.292,20.723
					c-5.245,5.993-12.132,11.005-17.831,14.571c-0.588,0.147-0.895,0.196-0.895,0.196l-2.402-24.559l1.299-19.056l11.109-15.257
					C275.899,98.168,276.579,110.386,280.574,107.641z"/>
				<path style="fill:#EB9A7C;" d="M381.515,179.344c6.569-5.407,1.371-13.667,4.49-18.026c3.118-4.359,9.355-8.315,12.127-12.401
					c2.772-4.086,4.158,5.616,0,10.467c0,0,13.513-6.583,20.097-5.89c6.583,0.693-3.811,4.233-3.811,4.233s12.82-3.044,16.632,0
					c3.811,3.043-9.355,5.914-9.355,5.914s6.237-1.918,7.623,1.244c1.386,3.162-13.86,5.934-13.86,5.934s7.276,1.123,6.93,3.333
					c-0.347,2.21-25.987,4.3-32.57,14.516C383.232,198.885,381.515,179.344,381.515,179.344z"/>
				<path style="fill:none;stroke:#E57857;stroke-linecap:round;stroke-miterlimit:10;" d="M406.628,166.37
					c-10.228,0.607-11.146,6.929-11.146,6.929"/>
				<path style="fill:#6033C6;" d="M395.477,191.367c0,0-7.439,12.806-17.843,26.753c-11.74,15.748-27.243,32.929-40.025,34.669
					c-12.402,1.691-28.125-7.635-42.721-19.51c-6.397-5.196-12.586-10.895-18.174-16.373c-6.422-6.287-12.071-12.279-16.361-16.912
					c-11.225-12.096-11.164-27.574-9.963-36.299c0.576-4.142,1.409-6.752,1.409-6.752c21.557,3.591,39.204,7.047,58.591,29.498
					c19.388,22.451,25.466,25.257,25.466,25.257l47.586-38.395L395.477,191.367z"/>
				<path style="fill:#6033C6;" d="M296.812,219.994c-0.429,4.069-1.09,8.566-1.924,13.284
					c-4.902,27.77-15.478,63.211-15.478,63.211h-76.226c0,0-0.123-0.649-0.319-1.85c-1.017-5.968-4.191-25.527-5.833-45.956
					c-1.605-20.172-1.728-41.201,3.211-50.834c10.956-21.348,17.709-34.939,38.027-37.341c3.566-0.417,7.708,0.833,12.12,3.186
					c20.613,11.066,46.912,46.287,46.912,46.287C297.388,212.837,297.204,216.232,296.812,219.994z"/>
				<path style="fill:#F7EFFB;" d="M221.519,160.433c-0.204,19.377,29.076,35.186,43.519-1.035
					C265.038,159.398,250.771,147.891,221.519,160.433z"/>
				<path style="fill:#F5CCFF;" d="M179.293,169.038l6.382,38.198c0.211,1.263,1.236,2.146,2.378,2.049l15.214-1.29
					c1.203-0.102,2.12-1.252,2.076-2.604l-1.269-39.215c-0.064-1.985-1.61-3.497-3.372-3.298l-18.7,2.104
					C180.214,165.183,178.962,167.057,179.293,169.038z"/>
				<path style="fill:#E799F8;" d="M176.798,169.038l6.382,38.198c0.211,1.263,1.236,2.146,2.378,2.049l15.214-1.29
					c1.203-0.102,2.12-1.252,2.076-2.604l-1.268-39.215c-0.064-1.985-1.61-3.497-3.372-3.298l-18.7,2.104
					C177.719,165.183,176.467,167.057,176.798,169.038z"/>
				<path style="opacity:0.22;fill:#180E3D;" d="M180.312,183.157c0.381,0.353,0.886,0.646,1.487,0.886
					c5.548,2.22,19.276,0.005,19.276,0.005l-17.348,10.696h-5.058"/>
				<path style="fill:#EB9A7C;" d="M176.76,197.115c-0.146-5.228,0.821-18.044,2.737-15.592c1.916,2.452,1.837,9.807,1.837,9.807
					s15.956-8.874,23.621-7.156c7.665,1.718,1.916,5.55,0,7.466c0,0,3.011,11.497-0.274,18.888
					c-3.285,7.391-22.721,2.19-22.721,2.19S176.867,200.958,176.76,197.115z"/>
				<path style="fill:#6033C6;" d="M176.791,197.115c-14.951,17.658-31.556,44.131-26.021,56.822
					c5.535,12.691,22.926,7.263,27.68-1.157c6.503-11.519,10.187-36.318,10.187-36.318L176.791,197.115z"/>
				<path style="fill:#E799F8;" d="M303.981,426.981c-5.539,41.079-11.287,74.78-11.287,74.78h-46.875l-10.87-86.606l-19.228,86.606
					l-42.243-4.632l12.218-82.501c0-0.012,0-0.012,0-0.024l16.238-109.645l1.25-8.468h76.226
					C308.319,320.62,309.533,385.89,303.981,426.981z"/>
				<polyline style="fill:none;stroke:#F3C2FF;stroke-miterlimit:10;" points="231.393,296.484 231.393,349.076 236.286,358.156 
					236.286,296.484 				"/>
				<g>
					<path style="fill:#EB9A7C;" d="M233.84,146.223c0,0,2.044,3.192,0.916,15.914c-0.299,3.37,1.836,7.214,5.201,7.558
						c6.452,0.66,11.14-2.596,11.304-6.312l0.89-19.8L233.84,146.223z"/>
					<path style="fill:#CE5F57;" d="M252.028,146.376c-3.499,10.696-17.113,14.138-17.113,14.138l-1.075-14.29l19.613-1.677
						L252.028,146.376z"/>
					<path style="fill:#EB9A7C;" d="M207.403,100.103c0,0,0.272,9.824-0.412,19.469c-0.725,10.216,3.015,20.242,10.462,27.274
						l0.361,0.341c5.377,5.077,13.037,6.935,20.142,4.882l5.916-1.708c4.236-1.223,7.976-3.755,10.686-7.233l6.253-8.027
						c0,0,5.149,0.403,10.947-6.329c5.798-6.733,2.876-19.509-10.169-4.361l-3.203,4.57l1.509-27.283
						c0,0-22.548-17.219-35.558-17.429C211.325,84.059,207.498,86.698,207.403,100.103z"/>
					<path style="fill:#473B2D;" d="M221.108,115.432c-0.173,1.943-0.994,3.456-1.834,3.382c-0.84-0.075-1.381-1.71-1.208-3.652
						c0.173-1.942,0.994-3.456,1.834-3.382C220.74,111.854,221.281,113.489,221.108,115.432z"/>
					<path style="fill:#473B2D;" d="M241.34,116.699c-0.173,1.942-0.994,3.457-1.834,3.382c-0.84-0.075-1.381-1.71-1.208-3.652
						c0.173-1.942,0.994-3.457,1.834-3.382C240.972,113.121,241.513,114.757,241.34,116.699z"/>
					<path style="fill:#FFFFFF;" d="M223.912,135.54l17.832-6.139c0,0,2.005,7.829-6.337,10.538
						C227.066,142.649,223.912,135.54,223.912,135.54z"/>
					<path style="fill:#CE5F57;" d="M228.928,118.734c-0.042,0.069-0.108,0.19-0.192,0.351c-0.588,1.119-3.88,6.335-3.88,6.335l0,0
						c2.404,0.619,4.683-1.365,4.4-3.832L228.928,118.734z"/>
					<path style="fill:#CE5F57;" d="M263.783,126.369c3.224-7.171,8.309-5.021,7.556-2.749c-0.754,2.272-5.235,7.314-8.955,8.198
						L263.783,126.369z"/>
				</g>
				<path style="fill:#6033C6;" d="M208.829,90.271c-4.225,16.616,29.9,19.977,35.788,15c5.888-4.978-6.352-11.709-6.352-11.709
					s16.063,20.002,26.772,13.367s3.698-23.164-8.643-28.643C244.054,72.807,214.695,67.198,208.829,90.271z"/>
				<path style="fill:#FFFFFF;" d="M198.389,169.628c0,1.339-0.968,2.423-2.161,2.423s-2.161-1.085-2.161-2.423
					c0-1.338,0.968-2.423,2.161-2.423S198.389,168.29,198.389,169.628z"/>
				<path style="opacity:0.24;fill:#2D241B;" d="M377.633,218.119c-11.74,15.748-27.243,32.929-40.025,34.669
					c-12.402,1.691-28.125-7.635-42.721-19.51c-4.902,27.77-15.478,63.211-15.478,63.211h-73.848
					c-0.907-0.625-1.814-1.238-2.696-1.85c-1.017-5.968-4.191-25.527-5.833-45.956c2.28,2.819,5.503,8.517,8.309,19.841
					c4.988,20.098,32.169,15.294,51.838,6.115c19.669-9.179,15.736-43.701,19.535-57.733c3.738-13.799,10.392-5.503,20.098,3.088
					c0.172,0.159,0.331,0.306,0.502,0.453c9.988,8.738,13.187,10.49,28.052,16.605C340.231,243.168,349.839,242.298,377.633,218.119
					z"/>
				<path style="opacity:0.22;fill:#180E3D;" d="M303.981,426.981c-5.539,41.079-11.287,74.78-11.287,74.78h-46.875l-10.87-86.606
					l-19.228,86.606l-42.243-4.632l12.218-82.501c-0.502,24.927-1.348,43.444,17.157,43.444c18.493,0,29.547-63.444,28.542-76.385
					c-1.005-12.929-11.936-9.24-10.699-14.853c1.225-5.601,41.887-3.628,41.887,3.039c0,6.667-20.944,1.961-22.549,11.814
					c-1.593,9.853,0.343,76.765,20.699,76.385c20.343-0.392,43.248-31.091,36.593-75.772c-6.667-44.669-32.28-75.76-94.474-76.998
					l-0.919-0.343l1.25-8.468h76.226C308.319,320.62,309.533,385.89,303.981,426.981z"/>
			</g>
		</g>
		<g>
			<path style="fill:#E799F8;" d="M157.975,112.935c0,2.831-0.282,5.601-0.821,8.284c-3.836,19.118-20.723,33.517-40.981,33.517
				c-23.076,0-41.79-18.713-41.79-41.802c0-2.549,0.233-5.049,0.662-7.476c3.53-19.51,20.601-34.314,41.128-34.314
				C139.262,71.145,157.975,89.859,157.975,112.935z"/>
			<g>
				<defs>
					<circle id="SVGID_00000080903727265384300790000001463796093914269824_" cx="116.176" cy="112.937" r="41.794"/>
				</defs>
				<clipPath id="SVGID_00000171690012568092320740000016641851599878682004_">
					<use xlink:href="#SVGID_00000080903727265384300790000001463796093914269824_"  style="overflow:visible;"/>
				</clipPath>
				<g style="clip-path:url(#SVGID_00000171690012568092320740000016641851599878682004_);">
					<g>
						<path style="fill:none;stroke:#F5CAFF;stroke-width:3;stroke-miterlimit:10;" d="M76.032,84.259
							c33.26,1.348,11.342,35.366,28.861,42.948c17.519,7.581,13.211,21.231,4.676,31.286"/>
						<path style="fill:none;stroke:#F5CAFF;stroke-width:3;stroke-miterlimit:10;" d="M116.176,61.776
							c-19.765,27.851,24.106,32.343,24.106,58.046c0,15.205-18.889,25.161-13.412,41.955"/>
						<path style="fill:none;stroke:#F5CAFF;stroke-width:3;stroke-miterlimit:10;" d="M144.027,74.803
							c-7.636,21.562,0.843,38.344,16.368,34.445"/>
					</g>
				</g>
			</g>
			<path style="opacity:0.24;fill:#2D241B;" d="M157.154,121.219c-3.836,19.118-20.723,33.517-40.981,33.517
				c-23.076,0-41.79-18.713-41.79-41.802c0-2.549,0.233-5.049,0.662-7.476C106.664,141.783,140.83,138.511,157.154,121.219z"/>
		</g>
		<g>
			<polygon style="fill:#6033C6;" points="353.945,145.194 410.653,66.068 408.663,167.227 			"/>
			<polygon style="fill:#8768DD;" points="410.653,66.068 437.018,130.2 408.663,167.227 			"/>
		</g>
		<g>
			<polygon style="fill:#F1C3FC;" points="418.358,306.672 400.577,300.318 352.014,328.457 362.906,378.836 386.053,385.644 			"/>
			<polygon style="fill:#E799F8;" points="371.076,331.181 418.358,306.672 430.078,364.831 386.053,385.644 			"/>
			<polygon style="fill:#F2D4F9;" points="371.076,331.181 352.014,328.457 362.906,378.836 386.053,385.644 			"/>
		</g>
		<g>
			<circle style="fill:#8768DD;" cx="100.093" cy="212.726" r="7.761"/>
			<path style="fill:#F2D4F9;" d="M339.227,90.854c0,3.085-2.5,5.585-5.585,5.585s-5.585-2.5-5.585-5.585s2.5-5.585,5.585-5.585
				S339.227,87.77,339.227,90.854z"/>
			<path style="fill:#F2D4F9;" d="M337.972,290.296c0,2.391-1.938,4.33-4.33,4.33s-4.33-1.939-4.33-4.33s1.938-4.33,4.33-4.33
				S337.972,287.905,337.972,290.296z"/>
			<path style="fill:#8768DD;" d="M337.116,376.594c0,2.391-1.938,4.33-4.33,4.33s-4.33-1.939-4.33-4.33s1.938-4.33,4.33-4.33
				S337.116,374.203,337.116,376.594z"/>
			<path style="fill:#8768DD;" d="M187.899,84.259c0,2.391-1.938,4.33-4.33,4.33s-4.33-1.938-4.33-4.33
				c0-2.391,1.938-4.33,4.33-4.33S187.899,81.868,187.899,84.259z"/>
			<path style="fill:#F2D4F9;" d="M212.698,56.758c0,1.196-0.969,2.165-2.165,2.165s-2.165-0.969-2.165-2.165
				c0-1.196,0.969-2.165,2.165-2.165S212.698,55.563,212.698,56.758z"/>
			<circle style="fill:#F2D4F9;" cx="136.646" cy="209.292" r="2.165"/>
			<polygon style="fill:#8768DD;" points="395.477,261.461 408.663,270.855 400.577,280.505 386.053,272.966 			"/>
			<polygon style="fill:#F2D4F9;" points="143.093,385.644 157.484,385.644 157.975,399.125 143.093,399.125 			"/>
			<polygon style="fill:#F2D4F9;" points="317.046,155.406 323.942,160.434 319.466,167.066 312.335,161.865 			"/>
			<polygon style="fill:#8768DD;" points="172.386,290.654 179.281,295.682 174.806,302.314 167.675,297.114 			"/>
		</g>
	</g>
</g>
</svg>
